<svg width="32" height="32" viewBox="0 0 32 32" fill="none" xmlns="http://www.w3.org/2000/svg">
<path fill-rule="evenodd" clip-rule="evenodd" d="M30 28C30 29.1 29.104 30 28 30H4C2.896 30 2 29.1 2 28V4C2 2.896 2.896 2 4 2H28C29.104 2 30 2.896 30 4V28ZM28 0H4C1.791 0 0 1.791 0 4V28C0 30.21 1.791 32 4 32H28C30.209 32 32 30.21 32 28V4C32 1.791 30.209 0 28 0ZM21.685 6.313C21.29 5.921 20.65 5.921 20.256 6.313L11.284 15.254C11.073 15.464 10.983 15.741 10.998 16.016C10.983 16.29 11.073 16.568 11.284 16.777L20.256 25.72C20.65 26.11 21.29 26.11 21.685 25.72C22.08 25.33 22.08 24.69 21.685 24.29L13.376 16.016L21.685 7.736C22.08 7.344 22.08 6.707 21.685 6.313Z" fill="#FFFFFE"/>
</svg>
