<svg width="32" height="32" viewBox="0 0 32 32" fill="none" xmlns="http://www.w3.org/2000/svg">
<path fill-rule="evenodd" clip-rule="evenodd" d="M30 28C30 29.1 29.104 30 28 30H4C2.896 30 2 29.1 2 28V4C2 2.896 2.896 2 4 2H28C29.104 2 30 2.896 30 4V28ZM28 0H4C1.791 0 0 1.791 0 4V28C0 30.21 1.791 32 4 32H28C30.209 32 32 30.21 32 28V4C32 1.791 30.209 0 28 0ZM11.744 6.313C11.35 5.921 10.71 5.921 10.315 6.313C9.92 6.707 9.92 7.344 10.315 7.736L18.624 16.016L10.315 24.29C9.92 24.69 9.92 25.33 10.315 25.72C10.71 26.11 11.35 26.11 11.744 25.72L20.716 16.777C20.927 16.568 21.017 16.29 21.002 16.016C21.017 15.741 20.927 15.464 20.716 15.254L11.744 6.313Z" fill="#FFFFFE"/>
</svg>
